<?xml version="1.0" encoding="utf-8"?>
<!-- Generator: Adobe Illustrator 16.0.0, SVG Export Plug-In . SVG Version: 6.00 Build 0)  -->
<!DOCTYPE svg PUBLIC "-//W3C//DTD SVG 1.1//EN" "http://www.w3.org/Graphics/SVG/1.1/DTD/svg11.dtd">
<svg version="1.1"
	 id="svg2" xmlns:dc="http://purl.org/dc/elements/1.1/" xmlns:cc="http://creativecommons.org/ns#" xmlns:rdf="http://www.w3.org/1999/02/22-rdf-syntax-ns#" xmlns:svg="http://www.w3.org/2000/svg" xmlns:sodipodi="http://sodipodi.sourceforge.net/DTD/sodipodi-0.dtd" xmlns:inkscape="http://www.inkscape.org/namespaces/inkscape" sodipodi:docname="twitter_bootstrap_logo.svg" inkscape:version="0.48.1 r9760"
	 xmlns="http://www.w3.org/2000/svg" xmlns:xlink="http://www.w3.org/1999/xlink" x="0px" y="0px" width="2000px"
	 height="2008.275px" viewBox="0 0 2000 2008.275" enable-background="new 0 0 2000 2008.275" xml:space="preserve">
<sodipodi:namedview  inkscape:cy="407.66551" inkscape:cx="116.80866" inkscape:zoom="0.24896372" fit-margin-left="0" fit-margin-top="0" showgrid="false" id="namedview2996" guidetolerance="10" gridtolerance="10" objecttolerance="10" borderopacity="1" bordercolor="#666666" pagecolor="#ffffff" inkscape:current-layer="svg2" inkscape:window-maximized="0" inkscape:window-y="0" inkscape:window-x="0" fit-margin-bottom="0" inkscape:window-height="623" inkscape:window-width="864" fit-margin-right="0" inkscape:pageshadow="2" inkscape:pageopacity="0">
	</sodipodi:namedview>
<g id="layer1" transform="matrix(15.623041,0,0,15.623041,-3987.6024,-6644.8835)">
	<path id="rect3050" fill="#1FA67A" d="M275.918,425.326h86.657c11.421,0,20.679,9.259,20.679,20.68v87.187
		c0,11.421-9.258,20.679-20.679,20.679h-86.657c-11.421,0-20.68-9.259-20.68-20.679v-87.187
		C255.239,434.584,264.497,425.326,275.918,425.326z"/>
</g>
<g>
	<path fill="#FFFFFF" d="M639.303,539.637c0,34.902-13.216,61.558-39.63,79.983v920.486c0,6.297-1.967,11.748-5.883,16.355
		c-3.934,4.59-8.575,6.9-13.94,6.9h-39.629c-5.383,0-10.024-2.311-13.94-6.9c-3.934-4.607-5.883-10.059-5.883-16.355V619.62
		c-26.431-18.426-39.629-45.081-39.629-79.983c0-25.672,7.729-47.601,23.222-65.785c15.476-18.185,34.161-27.277,56.037-27.277
		s40.561,9.092,56.054,27.277C631.557,492.036,639.303,513.964,639.303,539.637z M1550.836,586.167v554.761
		c0,12.129-2.588,21.463-7.746,28.002c-5.16,6.555-13.303,13.215-24.447,19.996c-88.766,56.227-164.938,84.33-228.514,84.33
		c-25.189,0-50.672-5.33-76.48-15.992c-25.811-10.662-48.205-22.291-67.184-34.885c-18.994-12.596-42.838-24.24-71.529-34.902
		s-58.107-16.012-88.23-16.012c-79.276,0-175.063,35.387-287.345,106.156c-7.022,4.365-13.836,6.539-20.427,6.539
		c-10.731,0-20.03-4.59-27.863-13.803c-7.85-9.213-11.766-20.115-11.766-32.729V698.138c0-15.493,6.383-28.83,19.185-39.992
		c8.661-6.78,24.982-17.201,48.929-31.262c97.426-58.159,184.329-87.247,260.707-87.247c44.167,0,85.435,7.039,123.841,21.083
		c38.387,14.061,83.59,35.386,135.623,63.991c15.684,9.213,33.85,13.819,54.484,13.819c22.291,0,46.549-5.089,72.771-15.269
		c26.207-10.179,48.912-21.566,68.115-34.178c19.184-12.595,37.352-23.999,54.484-34.178c17.131-10.179,28.379-15.269,33.764-15.269
		c10.73,0,20.012,4.606,27.861,13.819C1546.902,562.669,1550.836,573.573,1550.836,586.167z"/>
</g>
</svg>
